<svg xmlns="http://www.w3.org/2000/svg" viewBox="0 0 200 200" role="img" aria-label="le frère">
  <rect width="200" height="200" rx="24" fill="#F6E6DC"/>
  <rect x="9" y="9" width="182" height="182" rx="18" fill="none" stroke="#C46B6B" stroke-width="1.8" opacity="0.45"/>
  <ellipse cx="100" cy="86" rx="70" ry="52" fill="#E8D5C8" opacity="0.55"/>
  <path d="M168 18c3 7-1 12-6 14 6 2 9 8 6 13 6-2 13 3 13 9 4-9 1-20-5-26-3-4-7-7-8-10z" fill="#1E6B66" opacity="0.16"/>
  <ellipse cx="100" cy="166" rx="74" ry="13" fill="#E8C99A"/>
  <circle cx="100" cy="68" r="16" fill="#E8B888"/>
  <path d="M84 60c6-14 10-16 16-16s10 2 16 16" fill="#3A2718"/>
  <path d="M76 150c4-38 14-50 24-50s20 12 24 50" fill="#D9A441"/>
  <path d="M88 150h24v8H88z" fill="#134E4A"/>
  <circle cx="94" cy="66" r="1.8" fill="#3A2718"/>
  <circle cx="106" cy="66" r="1.8" fill="#3A2718"/>

  <text x="100" y="188" text-anchor="middle" font-family="Georgia,serif" font-size="13" font-weight="700" fill="#3A2718">le frère</text>
</svg>
