<svg xmlns="http://www.w3.org/2000/svg" viewBox="0 0 200 200" role="img" aria-label="le loyer">
  <rect width="200" height="200" rx="24" fill="#F4E8D4"/>
  <rect x="9" y="9" width="182" height="182" rx="18" fill="none" stroke="#C4563A" stroke-width="1.8" opacity="0.4"/>
  <path d="M18 18h164v62H18z" fill="#D7E8E2" opacity="0.55"/>
  <path d="M18 72c28-18 54-8 82-16 26-8 50 6 64 14v10H18z" fill="#7FA47A" opacity="0.35"/>
  <path d="M168 20c2 6-2 10-7 12 6 1 8 7 5 12 6-2 12 2 12 8 4-8 2-18-4-24-3-4-6-6-6-8z" fill="#1E6B66" opacity="0.18"/>
  <ellipse cx="100" cy="166" rx="74" ry="13" fill="#E8C99A"/>
  <rect x="58" y="64" width="84" height="80" rx="6" fill="#FFF8EE" stroke="#3A2718" stroke-width="2"/>
  <rect x="58" y="64" width="84" height="18" fill="#1E6B66"/>
  <path d="M70 100h60M70 112h44M70 124h52" stroke="#3A2718" stroke-width="2"/>
  <circle cx="132" cy="148" r="18" fill="#D9A441"/>
  <text x="132" y="154" text-anchor="middle" font-family="Georgia,serif" font-size="14" font-weight="700" fill="#3A2718">F</text>

  <text x="100" y="188" text-anchor="middle" font-family="Georgia,serif" font-size="13" font-weight="700" fill="#3A2718">le loyer</text>
</svg>
